# xmcd
#
# Track frame offsets:
#	150
#	15152
#	35466
#	52032
#	66559
#	81786
#	97465
#	111674
#	122942
#	137438
#	153033
#	167807
#
# Disc length: 2416 seconds
#
# Revision: 1
# Processed by: cddbd v1.5.2PL0 Copyright (c) Steve Scherf et al.
# Submitted via: EZCDAudioConverter 4.0.9.1
#
DISCID=a5096e0c
DTITLE=Various Artist - Villa Mercedes: Atmosphere CD 4
DYEAR=2011
DGENRE=Chill Out
TTITLE0=Ζωή Τηγανούρια feat In-Grid - Avec toi (Christdoulos Siganos rmx)
TTITLE1=Consoul Trainin' and Pink Noisy feat Anastasia Zannis - Tango to Evora
TTITLE2=Pedro Cazanova feat Andrea - Selfish love
TTITLE3=Alexandra Stan - Mr Saxo Beat
TTITLE4=Tony Ray feat Mc Robinho and Diana - Beautiful night
TTITLE5=Dan Balan - China bomb
TTITLE6=Ralvero, Dadz 'N' Effect - In my bedroom
TTITLE7=Stereo Palma - Lick it
TTITLE8=Duck Sauce - Barbra Streisand
TTITLE9=Contras feat Joan Kolova - La luna
TTITLE10=Milk and Sugar vs Vaya Con Dios - Hey (Nah neh nah)
TTITLE11=Yolanda Be Cool vs DCUP - We no speak americano
EXTD=
EXTT0=
EXTT1=
EXTT2=
EXTT3=
EXTT4=
EXTT5=
EXTT6=
EXTT7=
EXTT8=
EXTT9=
EXTT10=
EXTT11=
PLAYORDER=
